# xmcd
#
# Track frame offsets:
#	182
#	15565
#	32755
#	53095
#	70692
#	87412
#	100605
#	120642
#	133372
#	146502
#
# Disc length: 2218 seconds
#
# Revision: 1
# Processed by: cddbd v1.5.2PL0 Copyright (c) Steve Scherf et al.
# Submitted via: EZCDAudioConverter 6.0.8.1
#
DISCID=8308a80a
DTITLE=Hal Ketchum - Every Little Word
DYEAR=1994
DGENRE=Country
TTITLE0=(Tonight We Just Might) Fall In Love Again
TTITLE1=Every Little Word
TTITLE2=Swing Low
TTITLE3=Another Day Gone
TTITLE4=That's What I Get For Losin' You
TTITLE5=Stay Forever
TTITLE6=Walk Away
TTITLE7=Veil Of Tears
TTITLE8=No Easy Road
TTITLE9=Drive On
EXTD=
EXTT0=
EXTT1=
EXTT2=
EXTT3=
EXTT4=
EXTT5=
EXTT6=
EXTT7=
EXTT8=
EXTT9=
PLAYORDER=
